<mxfile host="65bd71144e">
    <diagram name="Página-1" id="k0K56xFF2GUSqC4ekMbd">
        <mxGraphModel dx="8852" dy="3116" grid="1" gridSize="10" guides="1" tooltips="1" connect="1" arrows="1" fold="1" page="1" pageScale="1" pageWidth="827" pageHeight="1169" math="0" shadow="0">
            <root>
                <mxCell id="0"/>
                <mxCell id="1" parent="0"/>
                <mxCell id="155" value="" style="group" vertex="1" connectable="0" parent="1">
                    <mxGeometry x="-3250" y="370" width="3400" height="1680" as="geometry"/>
                </mxCell>
                <mxCell id="149" value="" style="group;movable=1;resizable=1;rotatable=1;deletable=1;editable=1;connectable=1;" vertex="1" connectable="0" parent="155">
                    <mxGeometry width="3400" height="1220" as="geometry"/>
                </mxCell>
                <mxCell id="iV3qStHiX3I9z14rUc0y-1" value="" style="whiteSpace=wrap;html=1;rounded=0;" parent="149" vertex="1">
                    <mxGeometry width="3400" height="1220" as="geometry"/>
                </mxCell>
                <mxCell id="3" value="&lt;font style=&quot;font-size: 48px;&quot;&gt;Caso de uso IFLab&lt;/font&gt;" style="text;html=1;align=center;verticalAlign=middle;resizable=0;points=[];autosize=1;strokeColor=none;fillColor=none;fontSize=64;" vertex="1" parent="149">
                    <mxGeometry x="1485" y="10" width="430" height="90" as="geometry"/>
                </mxCell>
                <mxCell id="153" value="" style="group" vertex="1" connectable="0" parent="155">
                    <mxGeometry x="142" y="170" width="3120" height="1510" as="geometry"/>
                </mxCell>
                <mxCell id="15" value="" style="whiteSpace=wrap;html=1;aspect=fixed;shadow=0;glass=0;rounded=0;movable=1;resizable=1;rotatable=1;deletable=1;editable=1;connectable=1;" vertex="1" parent="153">
                    <mxGeometry x="1530" y="1230" width="280" height="280" as="geometry"/>
                </mxCell>
                <mxCell id="13" value="" style="group;aspect=fixed;rounded=0;movable=1;resizable=1;rotatable=1;deletable=1;editable=1;connectable=1;" vertex="1" connectable="0" parent="153">
                    <mxGeometry x="2710" y="1230" width="280" height="280" as="geometry"/>
                </mxCell>
                <mxCell id="8" value="" style="whiteSpace=wrap;html=1;aspect=fixed;shadow=0;glass=0;rounded=0;movable=1;resizable=1;rotatable=1;deletable=1;editable=1;connectable=1;" vertex="1" parent="13">
                    <mxGeometry width="280" height="280" as="geometry"/>
                </mxCell>
                <mxCell id="9" value="Admin Campus&lt;br&gt;(Nível = 3)" style="shape=umlActor;verticalLabelPosition=bottom;verticalAlign=top;html=1;outlineConnect=0;aspect=fixed;fontSize=24;movable=1;resizable=1;rotatable=1;deletable=1;editable=1;connectable=1;" vertex="1" parent="13">
                    <mxGeometry x="91.53846153846153" y="10.769230769230768" width="96.92307692307692" height="193.84615384615384" as="geometry"/>
                </mxCell>
                <mxCell id="14" value="" style="group;aspect=fixed;movable=1;resizable=1;rotatable=1;deletable=1;editable=1;connectable=1;" vertex="1" connectable="0" parent="153">
                    <mxGeometry x="1530" y="1230" width="280" height="280" as="geometry"/>
                </mxCell>
                <mxCell id="16" value="Admin Labs&lt;br&gt;(Nível = 2)" style="shape=umlActor;verticalLabelPosition=bottom;verticalAlign=top;html=1;outlineConnect=0;aspect=fixed;fontSize=24;movable=1;resizable=1;rotatable=1;deletable=1;editable=1;connectable=1;" vertex="1" parent="14">
                    <mxGeometry x="91.53846153846153" y="10.769230769230768" width="96.92307692307692" height="193.84615384615384" as="geometry"/>
                </mxCell>
                <mxCell id="17" value="" style="group;aspect=fixed;movable=1;resizable=1;rotatable=1;deletable=1;editable=1;connectable=1;" vertex="1" connectable="0" parent="153">
                    <mxGeometry x="120" y="1230" width="280" height="280" as="geometry"/>
                </mxCell>
                <mxCell id="18" value="" style="whiteSpace=wrap;html=1;aspect=fixed;shadow=0;glass=0;rounded=0;movable=1;resizable=1;rotatable=1;deletable=1;editable=1;connectable=1;" vertex="1" parent="17">
                    <mxGeometry width="280" height="280" as="geometry"/>
                </mxCell>
                <mxCell id="19" value="Membro&lt;br&gt;(Nível = 1)" style="shape=umlActor;verticalLabelPosition=bottom;verticalAlign=top;html=1;outlineConnect=0;aspect=fixed;fontSize=24;movable=1;resizable=1;rotatable=1;deletable=1;editable=1;connectable=1;" vertex="1" parent="17">
                    <mxGeometry x="91.53846153846153" y="10.769230769230768" width="96.92307692307692" height="193.84615384615384" as="geometry"/>
                </mxCell>
                <mxCell id="20" style="edgeStyle=none;html=1;entryX=1;entryY=0.5;entryDx=0;entryDy=0;fontSize=24;strokeWidth=4;endSize=5;movable=1;resizable=1;rotatable=1;deletable=1;editable=1;connectable=1;" edge="1" parent="153" source="8" target="15">
                    <mxGeometry relative="1" as="geometry"/>
                </mxCell>
                <mxCell id="21" style="edgeStyle=none;html=1;entryX=1;entryY=0.5;entryDx=0;entryDy=0;strokeWidth=4;fontSize=24;endSize=2;startSize=6;movable=1;resizable=1;rotatable=1;deletable=1;editable=1;connectable=1;" edge="1" parent="153" source="15" target="18">
                    <mxGeometry relative="1" as="geometry"/>
                </mxCell>
                <mxCell id="43" value="&lt;div style=&quot;font-size: 24px;&quot;&gt;Fazer Login&lt;/div&gt;" style="ellipse;whiteSpace=wrap;html=1;aspect=fixed;fontSize=24;movable=1;resizable=1;rotatable=1;deletable=1;editable=1;connectable=1;" vertex="1" parent="153">
                    <mxGeometry y="280" width="180" height="60" as="geometry"/>
                </mxCell>
                <mxCell id="44" value="Editar perfil do usuário" style="ellipse;whiteSpace=wrap;html=1;aspect=fixed;fontSize=24;movable=1;resizable=1;rotatable=1;deletable=1;editable=1;connectable=1;" vertex="1" parent="153">
                    <mxGeometry x="220" y="280" width="195.72" height="65" as="geometry"/>
                </mxCell>
                <mxCell id="45" value="Visualizar laboratórios" style="ellipse;whiteSpace=wrap;html=1;aspect=fixed;fontSize=24;movable=1;resizable=1;rotatable=1;deletable=1;editable=1;connectable=1;" vertex="1" parent="153">
                    <mxGeometry x="470" y="280" width="210" height="70" as="geometry"/>
                </mxCell>
                <mxCell id="46" value="Visualizar inventários" style="ellipse;whiteSpace=wrap;html=1;aspect=fixed;fontSize=24;movable=1;resizable=1;rotatable=1;deletable=1;editable=1;connectable=1;" vertex="1" parent="153">
                    <mxGeometry x="710" y="280" width="210" height="70" as="geometry"/>
                </mxCell>
                <mxCell id="47" value="Marcar sessão em laboratório" style="ellipse;whiteSpace=wrap;html=1;aspect=fixed;fontSize=24;movable=1;resizable=1;rotatable=1;deletable=1;editable=1;connectable=1;" vertex="1" parent="153">
                    <mxGeometry x="960" y="280" width="240" height="80" as="geometry"/>
                </mxCell>
                <mxCell id="52" style="html=1;entryX=0.5;entryY=1;entryDx=0;entryDy=0;strokeWidth=4;fontSize=24;endArrow=none;endFill=0;startSize=6;endSize=2;elbow=vertical;exitX=0.5;exitY=0;exitDx=0;exitDy=0;movable=1;resizable=1;rotatable=1;deletable=1;editable=1;connectable=1;" edge="1" parent="153" source="18" target="43">
                    <mxGeometry relative="1" as="geometry"/>
                </mxCell>
                <mxCell id="53" style="edgeStyle=none;html=1;entryX=0.5;entryY=1;entryDx=0;entryDy=0;strokeWidth=4;fontSize=24;endArrow=none;endFill=0;startSize=6;endSize=2;elbow=vertical;exitX=0.5;exitY=0;exitDx=0;exitDy=0;movable=1;resizable=1;rotatable=1;deletable=1;editable=1;connectable=1;" edge="1" parent="153" source="18" target="44">
                    <mxGeometry relative="1" as="geometry"/>
                </mxCell>
                <mxCell id="54" style="edgeStyle=none;html=1;entryX=0.5;entryY=1;entryDx=0;entryDy=0;strokeWidth=4;fontSize=24;endArrow=none;endFill=0;startSize=6;endSize=2;elbow=vertical;exitX=0.5;exitY=0;exitDx=0;exitDy=0;movable=1;resizable=1;rotatable=1;deletable=1;editable=1;connectable=1;" edge="1" parent="153" source="18" target="45">
                    <mxGeometry relative="1" as="geometry"/>
                </mxCell>
                <mxCell id="55" style="edgeStyle=none;html=1;strokeWidth=4;fontSize=24;endArrow=none;endFill=0;startSize=6;endSize=2;elbow=vertical;exitX=0.5;exitY=0;exitDx=0;exitDy=0;entryX=0.5;entryY=1;entryDx=0;entryDy=0;movable=1;resizable=1;rotatable=1;deletable=1;editable=1;connectable=1;" edge="1" parent="153" source="18" target="46">
                    <mxGeometry relative="1" as="geometry"/>
                </mxCell>
                <mxCell id="56" style="edgeStyle=none;html=1;entryX=0;entryY=1;entryDx=0;entryDy=0;strokeWidth=4;fontSize=24;endArrow=none;endFill=0;startSize=6;endSize=2;elbow=vertical;exitX=0.5;exitY=0;exitDx=0;exitDy=0;movable=1;resizable=1;rotatable=1;deletable=1;editable=1;connectable=1;" edge="1" parent="153" source="18" target="47">
                    <mxGeometry relative="1" as="geometry"/>
                </mxCell>
                <mxCell id="58" value="&amp;lt;&amp;lt;include&amp;gt;&amp;gt;" style="html=1;verticalAlign=bottom;labelBackgroundColor=default;endArrow=open;endFill=0;dashed=1;rounded=0;exitX=0.5;exitY=1;exitDx=0;exitDy=0;entryX=0.5;entryY=0;entryDx=0;entryDy=0;strokeWidth=5;fontSize=20;movable=1;resizable=1;rotatable=1;deletable=1;editable=1;connectable=1;" edge="1" parent="153" source="59" target="43">
                    <mxGeometry x="0.0638" y="4" width="160" relative="1" as="geometry">
                        <mxPoint x="413.6197572316619" y="176.99425881945422" as="sourcePoint"/>
                        <mxPoint x="340" y="235.00000000000023" as="targetPoint"/>
                        <mxPoint as="offset"/>
                    </mxGeometry>
                </mxCell>
                <mxCell id="59" value="&lt;div style=&quot;font-size: 24px;&quot;&gt;Fazer Cadastro&lt;/div&gt;" style="ellipse;whiteSpace=wrap;html=1;aspect=fixed;fontSize=24;movable=1;resizable=1;rotatable=1;deletable=1;editable=1;connectable=1;" vertex="1" parent="153">
                    <mxGeometry width="180" height="60" as="geometry"/>
                </mxCell>
                <mxCell id="61" value="&amp;lt;&amp;lt;include&amp;gt;&amp;gt;" style="html=1;verticalAlign=bottom;labelBackgroundColor=default;endArrow=open;endFill=0;dashed=1;rounded=0;strokeWidth=5;fontSize=20;exitX=0.5;exitY=1;exitDx=0;exitDy=0;entryX=0.5;entryY=0;entryDx=0;entryDy=0;movable=1;resizable=1;rotatable=1;deletable=1;editable=1;connectable=1;" edge="1" parent="153" source="47" target="62">
                    <mxGeometry x="0.1624" y="3" width="160" relative="1" as="geometry">
                        <mxPoint x="630" y="800" as="sourcePoint"/>
                        <mxPoint x="87" y="185" as="targetPoint"/>
                        <mxPoint as="offset"/>
                    </mxGeometry>
                </mxCell>
                <mxCell id="62" value="Finalizar própria sessão" style="ellipse;whiteSpace=wrap;html=1;aspect=fixed;fontSize=24;movable=1;resizable=1;rotatable=1;deletable=1;editable=1;connectable=1;" vertex="1" parent="153">
                    <mxGeometry x="960" y="540" width="240" height="80" as="geometry"/>
                </mxCell>
                <mxCell id="70" value="Finalizar qualquer sessão" style="ellipse;whiteSpace=wrap;html=1;aspect=fixed;fontSize=24;movable=1;resizable=1;rotatable=1;deletable=1;editable=1;connectable=1;" vertex="1" parent="153">
                    <mxGeometry x="960" width="240" height="80" as="geometry"/>
                </mxCell>
                <mxCell id="71" style="html=1;entryX=1;entryY=1;entryDx=0;entryDy=0;labelBackgroundColor=default;strokeWidth=5;fontSize=25;endArrow=none;endFill=0;startSize=6;endSize=2;elbow=vertical;exitX=0.5;exitY=0;exitDx=0;exitDy=0;movable=1;resizable=1;rotatable=1;deletable=1;editable=1;connectable=1;" edge="1" parent="153" source="15" target="70">
                    <mxGeometry relative="1" as="geometry"/>
                </mxCell>
                <mxCell id="73" value="&amp;lt;&amp;lt;include&amp;gt;&amp;gt;" style="html=1;verticalAlign=bottom;labelBackgroundColor=default;endArrow=classic;endFill=1;dashed=1;strokeWidth=5;fontSize=20;startSize=6;endSize=2;elbow=vertical;entryX=0.5;entryY=0;entryDx=0;entryDy=0;exitX=0.5;exitY=1;exitDx=0;exitDy=0;movable=1;resizable=1;rotatable=1;deletable=1;editable=1;connectable=1;" edge="1" parent="153" source="70" target="47">
                    <mxGeometry x="0.0036" y="11" width="160" relative="1" as="geometry">
                        <mxPoint x="690" y="850" as="sourcePoint"/>
                        <mxPoint x="960" y="530" as="targetPoint"/>
                        <mxPoint as="offset"/>
                    </mxGeometry>
                </mxCell>
                <mxCell id="78" value="Gerar relatório de acesso" style="ellipse;whiteSpace=wrap;html=1;aspect=fixed;fontSize=24;movable=1;resizable=1;rotatable=1;deletable=1;editable=1;connectable=1;" vertex="1" parent="153">
                    <mxGeometry x="960" y="680" width="240" height="80" as="geometry"/>
                </mxCell>
                <mxCell id="79" value="Gerar relatório de inventário" style="ellipse;whiteSpace=wrap;html=1;aspect=fixed;fontSize=24;movable=1;resizable=1;rotatable=1;deletable=1;editable=1;connectable=1;" vertex="1" parent="153">
                    <mxGeometry x="960" y="810" width="240" height="80" as="geometry"/>
                </mxCell>
                <mxCell id="80" value="Adicionar laboratório" style="ellipse;whiteSpace=wrap;html=1;aspect=fixed;fontSize=24;movable=1;resizable=1;rotatable=1;deletable=1;editable=1;connectable=1;" vertex="1" parent="153">
                    <mxGeometry x="1220" y="110" width="240" height="80" as="geometry"/>
                </mxCell>
                <mxCell id="81" value="Remover laboratório" style="ellipse;whiteSpace=wrap;html=1;aspect=fixed;fontSize=24;movable=1;resizable=1;rotatable=1;deletable=1;editable=1;connectable=1;" vertex="1" parent="153">
                    <mxGeometry x="1550" y="110" width="240" height="80" as="geometry"/>
                </mxCell>
                <mxCell id="82" value="Editar laboratório" style="ellipse;whiteSpace=wrap;html=1;aspect=fixed;fontSize=24;movable=1;resizable=1;rotatable=1;deletable=1;editable=1;connectable=1;" vertex="1" parent="153">
                    <mxGeometry x="1380" y="30" width="240" height="80" as="geometry"/>
                </mxCell>
                <mxCell id="83" value="Adicionar Elemento" style="ellipse;whiteSpace=wrap;html=1;aspect=fixed;fontSize=24;movable=1;resizable=1;rotatable=1;deletable=1;editable=1;connectable=1;" vertex="1" parent="153">
                    <mxGeometry x="1740" y="230" width="240" height="80" as="geometry"/>
                </mxCell>
                <mxCell id="84" value="Remover Elemento" style="ellipse;whiteSpace=wrap;html=1;aspect=fixed;fontSize=24;movable=1;resizable=1;rotatable=1;deletable=1;editable=1;connectable=1;" vertex="1" parent="153">
                    <mxGeometry x="2050" y="410" width="240" height="80" as="geometry"/>
                </mxCell>
                <mxCell id="85" value="Editar Elemento" style="ellipse;whiteSpace=wrap;html=1;aspect=fixed;fontSize=24;movable=1;resizable=1;rotatable=1;deletable=1;editable=1;connectable=1;" vertex="1" parent="153">
                    <mxGeometry x="1910" y="300" width="240" height="80" as="geometry"/>
                </mxCell>
                <mxCell id="86" value="Adicionar Equipamento" style="ellipse;whiteSpace=wrap;html=1;aspect=fixed;fontSize=24;movable=1;resizable=1;rotatable=1;deletable=1;editable=1;connectable=1;" vertex="1" parent="153">
                    <mxGeometry x="2228" y="650" width="240" height="80" as="geometry"/>
                </mxCell>
                <mxCell id="87" value="Remover Equipamento" style="ellipse;whiteSpace=wrap;html=1;aspect=fixed;fontSize=24;movable=1;resizable=1;rotatable=1;deletable=1;editable=1;connectable=1;" vertex="1" parent="153">
                    <mxGeometry x="2190" y="790" width="240" height="80" as="geometry"/>
                </mxCell>
                <mxCell id="88" value="Editar Equipamento" style="ellipse;whiteSpace=wrap;html=1;aspect=fixed;fontSize=24;movable=1;resizable=1;rotatable=1;deletable=1;editable=1;connectable=1;" vertex="1" parent="153">
                    <mxGeometry x="2090" y="525" width="240" height="80" as="geometry"/>
                </mxCell>
                <mxCell id="96" style="edgeStyle=none;html=1;entryX=1;entryY=1;entryDx=0;entryDy=0;labelBackgroundColor=default;strokeWidth=5;fontSize=20;endArrow=none;endFill=0;startSize=6;endSize=2;elbow=vertical;exitX=0.5;exitY=0;exitDx=0;exitDy=0;movable=1;resizable=1;rotatable=1;deletable=1;editable=1;connectable=1;" edge="1" parent="153" source="15" target="79">
                    <mxGeometry relative="1" as="geometry">
                        <mxPoint x="940" y="1040" as="sourcePoint"/>
                    </mxGeometry>
                </mxCell>
                <mxCell id="97" style="edgeStyle=none;html=1;entryX=1;entryY=1;entryDx=0;entryDy=0;labelBackgroundColor=default;strokeWidth=5;fontSize=20;endArrow=none;endFill=0;startSize=6;endSize=2;elbow=vertical;exitX=0.5;exitY=0;exitDx=0;exitDy=0;movable=1;resizable=1;rotatable=1;deletable=1;editable=1;connectable=1;" edge="1" parent="153" source="15" target="78">
                    <mxGeometry relative="1" as="geometry"/>
                </mxCell>
                <mxCell id="113" value="Gerenciar admin Labs" style="ellipse;whiteSpace=wrap;html=1;aspect=fixed;fontSize=24;movable=1;resizable=1;rotatable=1;deletable=1;editable=1;connectable=1;" vertex="1" parent="153">
                    <mxGeometry x="2730" y="590" width="240" height="80" as="geometry"/>
                </mxCell>
                <mxCell id="115" style="edgeStyle=none;html=1;entryX=0.5;entryY=1;entryDx=0;entryDy=0;labelBackgroundColor=default;strokeWidth=5;fontSize=20;endArrow=none;endFill=0;startSize=6;endSize=2;elbow=vertical;exitX=0.5;exitY=0;exitDx=0;exitDy=0;movable=1;resizable=1;rotatable=1;deletable=1;editable=1;connectable=1;" edge="1" parent="153" source="8" target="113">
                    <mxGeometry relative="1" as="geometry"/>
                </mxCell>
                <mxCell id="128" value="Gerenciar laboratório" style="ellipse;whiteSpace=wrap;html=1;aspect=fixed;fontSize=24;movable=1;resizable=1;rotatable=1;deletable=1;editable=1;connectable=1;" vertex="1" parent="153">
                    <mxGeometry x="1380" y="280" width="240" height="80" as="geometry"/>
                </mxCell>
                <mxCell id="129" value="&amp;lt;&amp;lt;include&amp;gt;&amp;gt;" style="html=1;verticalAlign=bottom;labelBackgroundColor=default;endArrow=open;endFill=0;dashed=1;strokeWidth=5;fontSize=20;startSize=6;endSize=2;elbow=vertical;exitX=0;exitY=0;exitDx=0;exitDy=0;entryX=0.5;entryY=1;entryDx=0;entryDy=0;movable=1;resizable=1;rotatable=1;deletable=1;editable=1;connectable=1;" edge="1" parent="153" source="128" target="80">
                    <mxGeometry width="160" relative="1" as="geometry">
                        <mxPoint x="1620" y="370" as="sourcePoint"/>
                        <mxPoint x="1780" y="370" as="targetPoint"/>
                    </mxGeometry>
                </mxCell>
                <mxCell id="130" value="&amp;lt;&amp;lt;include&amp;gt;&amp;gt;" style="html=1;verticalAlign=bottom;labelBackgroundColor=default;endArrow=open;endFill=0;dashed=1;strokeWidth=5;fontSize=20;startSize=6;endSize=2;elbow=vertical;exitX=1;exitY=0;exitDx=0;exitDy=0;entryX=0.391;entryY=0.975;entryDx=0;entryDy=0;entryPerimeter=0;movable=1;resizable=1;rotatable=1;deletable=1;editable=1;connectable=1;" edge="1" parent="153" source="128" target="81">
                    <mxGeometry width="160" relative="1" as="geometry">
                        <mxPoint x="1350" y="200" as="sourcePoint"/>
                        <mxPoint x="1425.1471862576154" y="301.7157287525383" as="targetPoint"/>
                    </mxGeometry>
                </mxCell>
                <mxCell id="131" value="&amp;lt;&amp;lt;include&amp;gt;&amp;gt;" style="html=1;verticalAlign=bottom;labelBackgroundColor=default;endArrow=open;endFill=0;dashed=1;strokeWidth=5;fontSize=20;startSize=6;endSize=2;elbow=vertical;exitX=0.5;exitY=0;exitDx=0;exitDy=0;entryX=0.5;entryY=1;entryDx=0;entryDy=0;movable=1;resizable=1;rotatable=1;deletable=1;editable=1;connectable=1;" edge="1" parent="153" source="128" target="82">
                    <mxGeometry width="160" relative="1" as="geometry">
                        <mxPoint x="1720" y="210" as="sourcePoint"/>
                        <mxPoint x="1594.8528137423855" y="301.7157287525383" as="targetPoint"/>
                    </mxGeometry>
                </mxCell>
                <mxCell id="132" style="edgeStyle=none;html=1;exitX=0.5;exitY=0;exitDx=0;exitDy=0;entryX=0.5;entryY=1;entryDx=0;entryDy=0;labelBackgroundColor=default;strokeWidth=5;fontSize=20;endArrow=none;endFill=0;startSize=6;endSize=2;elbow=vertical;movable=1;resizable=1;rotatable=1;deletable=1;editable=1;connectable=1;" edge="1" parent="153" source="15" target="128">
                    <mxGeometry relative="1" as="geometry"/>
                </mxCell>
                <mxCell id="144" style="edgeStyle=none;html=1;exitX=0.5;exitY=1;exitDx=0;exitDy=0;entryX=0.5;entryY=0;entryDx=0;entryDy=0;labelBackgroundColor=default;strokeWidth=5;fontSize=20;endArrow=none;endFill=0;startSize=6;endSize=2;elbow=vertical;movable=1;resizable=1;rotatable=1;deletable=1;editable=1;connectable=1;" edge="1" parent="153" source="133" target="15">
                    <mxGeometry relative="1" as="geometry"/>
                </mxCell>
                <mxCell id="133" value="Gerenciar elemento" style="ellipse;whiteSpace=wrap;html=1;aspect=fixed;fontSize=24;movable=1;resizable=1;rotatable=1;deletable=1;editable=1;connectable=1;" vertex="1" parent="153">
                    <mxGeometry x="1610" y="480" width="240" height="80" as="geometry"/>
                </mxCell>
                <mxCell id="135" value="&amp;lt;&amp;lt;include&amp;gt;&amp;gt;" style="html=1;verticalAlign=bottom;labelBackgroundColor=default;endArrow=open;endFill=0;dashed=1;strokeWidth=5;fontSize=20;startSize=6;endSize=2;elbow=vertical;exitX=1;exitY=0.5;exitDx=0;exitDy=0;entryX=0;entryY=0.5;entryDx=0;entryDy=0;movable=1;resizable=1;rotatable=1;deletable=1;editable=1;connectable=1;" edge="1" parent="153" source="133" target="84">
                    <mxGeometry width="160" relative="1" as="geometry">
                        <mxPoint x="1680" y="200" as="sourcePoint"/>
                        <mxPoint x="1594.852813742386" y="301.7157287525383" as="targetPoint"/>
                    </mxGeometry>
                </mxCell>
                <mxCell id="136" value="&amp;lt;&amp;lt;include&amp;gt;&amp;gt;" style="html=1;verticalAlign=bottom;labelBackgroundColor=default;endArrow=open;endFill=0;dashed=1;strokeWidth=5;fontSize=20;startSize=6;endSize=2;elbow=vertical;exitX=1;exitY=0;exitDx=0;exitDy=0;entryX=0;entryY=1;entryDx=0;entryDy=0;movable=1;resizable=1;rotatable=1;deletable=1;editable=1;connectable=1;" edge="1" parent="153" source="133" target="85">
                    <mxGeometry width="160" relative="1" as="geometry">
                        <mxPoint x="2185.1471862576136" y="328.28427124746213" as="sourcePoint"/>
                        <mxPoint x="1960" y="370" as="targetPoint"/>
                    </mxGeometry>
                </mxCell>
                <mxCell id="137" value="&amp;lt;&amp;lt;include&amp;gt;&amp;gt;" style="html=1;verticalAlign=bottom;labelBackgroundColor=default;endArrow=open;endFill=0;dashed=1;strokeWidth=5;fontSize=20;startSize=6;endSize=2;elbow=vertical;movable=1;resizable=1;rotatable=1;deletable=1;editable=1;connectable=1;" edge="1" parent="153" source="133" target="83">
                    <mxGeometry width="160" relative="1" as="geometry">
                        <mxPoint x="2050" y="285" as="sourcePoint"/>
                        <mxPoint x="1830" y="380" as="targetPoint"/>
                    </mxGeometry>
                </mxCell>
                <mxCell id="138" value="Gerenciar equipameno" style="ellipse;whiteSpace=wrap;html=1;aspect=fixed;fontSize=24;movable=1;resizable=1;rotatable=1;deletable=1;editable=1;connectable=1;" vertex="1" parent="153">
                    <mxGeometry x="1790" y="690" width="240" height="80" as="geometry"/>
                </mxCell>
                <mxCell id="139" value="&amp;lt;&amp;lt;include&amp;gt;&amp;gt;" style="html=1;verticalAlign=bottom;labelBackgroundColor=default;endArrow=open;endFill=0;dashed=1;strokeWidth=5;fontSize=20;startSize=6;endSize=2;elbow=vertical;entryX=0;entryY=1;entryDx=0;entryDy=0;movable=1;resizable=1;rotatable=1;deletable=1;editable=1;connectable=1;" edge="1" parent="153" source="138" target="88">
                    <mxGeometry x="-0.1621" y="3" width="160" relative="1" as="geometry">
                        <mxPoint x="2100" y="290" as="sourcePoint"/>
                        <mxPoint x="1960" y="325" as="targetPoint"/>
                        <mxPoint as="offset"/>
                    </mxGeometry>
                </mxCell>
                <mxCell id="140" value="&amp;lt;&amp;lt;include&amp;gt;&amp;gt;" style="html=1;verticalAlign=bottom;labelBackgroundColor=default;endArrow=open;endFill=0;dashed=1;strokeWidth=5;fontSize=20;startSize=6;endSize=2;elbow=vertical;exitX=1;exitY=0.5;exitDx=0;exitDy=0;movable=1;resizable=1;rotatable=1;deletable=1;editable=1;connectable=1;" edge="1" parent="153" source="138" target="86">
                    <mxGeometry x="0.043" y="-10" width="160" relative="1" as="geometry">
                        <mxPoint x="2100" y="400" as="sourcePoint"/>
                        <mxPoint x="2007.9473319220206" y="492.05266807797943" as="targetPoint"/>
                        <mxPoint as="offset"/>
                    </mxGeometry>
                </mxCell>
                <mxCell id="141" value="&amp;lt;&amp;lt;include&amp;gt;&amp;gt;" style="html=1;verticalAlign=bottom;labelBackgroundColor=default;endArrow=open;endFill=0;dashed=1;strokeWidth=5;fontSize=20;startSize=6;endSize=2;elbow=vertical;entryX=0;entryY=0.5;entryDx=0;entryDy=0;exitX=1;exitY=1;exitDx=0;exitDy=0;movable=1;resizable=1;rotatable=1;deletable=1;editable=1;connectable=1;" edge="1" parent="153" source="138" target="87">
                    <mxGeometry x="-0.0217" y="-17" width="160" relative="1" as="geometry">
                        <mxPoint x="2230" y="530" as="sourcePoint"/>
                        <mxPoint x="2090" y="530" as="targetPoint"/>
                        <mxPoint y="1" as="offset"/>
                    </mxGeometry>
                </mxCell>
                <mxCell id="143" style="edgeStyle=none;html=1;exitX=0.5;exitY=0;exitDx=0;exitDy=0;entryX=0;entryY=1;entryDx=0;entryDy=0;labelBackgroundColor=default;strokeWidth=5;fontSize=20;endArrow=none;endFill=0;startSize=6;endSize=2;elbow=vertical;movable=1;resizable=1;rotatable=1;deletable=1;editable=1;connectable=1;" edge="1" parent="153" source="15" target="138">
                    <mxGeometry relative="1" as="geometry"/>
                </mxCell>
                <mxCell id="145" value="Adicionar admin Labs" style="ellipse;whiteSpace=wrap;html=1;aspect=fixed;fontSize=24;movable=1;resizable=1;rotatable=1;deletable=1;editable=1;connectable=1;" vertex="1" parent="153">
                    <mxGeometry x="2600" y="360" width="240" height="80" as="geometry"/>
                </mxCell>
                <mxCell id="146" value="Remover admin Labs" style="ellipse;whiteSpace=wrap;html=1;aspect=fixed;fontSize=24;movable=1;resizable=1;rotatable=1;deletable=1;editable=1;connectable=1;" vertex="1" parent="153">
                    <mxGeometry x="2880" y="360" width="240" height="80" as="geometry"/>
                </mxCell>
                <mxCell id="147" value="&amp;lt;&amp;lt;include&amp;gt;&amp;gt;" style="html=1;verticalAlign=bottom;labelBackgroundColor=default;endArrow=open;endFill=0;dashed=1;strokeWidth=5;fontSize=20;startSize=6;endSize=2;elbow=vertical;entryX=0.5;entryY=1;entryDx=0;entryDy=0;exitX=1;exitY=0;exitDx=0;exitDy=0;movable=1;resizable=1;rotatable=1;deletable=1;editable=1;connectable=1;" edge="1" parent="153" source="113" target="146">
                    <mxGeometry x="-0.1621" y="3" width="160" relative="1" as="geometry">
                        <mxPoint x="2829.9992617247685" y="461.29519797340276" as="sourcePoint"/>
                        <mxPoint x="2989.4171862576145" y="360.00427124746216" as="targetPoint"/>
                        <mxPoint as="offset"/>
                    </mxGeometry>
                </mxCell>
                <mxCell id="148" value="&amp;lt;&amp;lt;include&amp;gt;&amp;gt;" style="html=1;verticalAlign=bottom;labelBackgroundColor=default;endArrow=open;endFill=0;dashed=1;strokeWidth=5;fontSize=20;startSize=6;endSize=2;elbow=vertical;entryX=0.5;entryY=1;entryDx=0;entryDy=0;exitX=0;exitY=0;exitDx=0;exitDy=0;movable=1;resizable=1;rotatable=1;deletable=1;editable=1;connectable=1;" edge="1" parent="153" source="113" target="145">
                    <mxGeometry x="-0.1621" y="3" width="160" relative="1" as="geometry">
                        <mxPoint x="2944.8528137423864" y="611.7157287525383" as="sourcePoint"/>
                        <mxPoint x="3015.1471862576136" y="478.2842712474626" as="targetPoint"/>
                        <mxPoint as="offset"/>
                    </mxGeometry>
                </mxCell>
            </root>
        </mxGraphModel>
    </diagram>
</mxfile>